<mxfile host="app.diagrams.net" modified="2024-04-12T01:16:39.384Z" agent="Mozilla/5.0 (Windows NT 10.0; Win64; x64) AppleWebKit/537.36 (KHTML, like Gecko) Chrome/123.0.0.0 Safari/537.36 Edg/123.0.0.0" etag="P9KW3U1KmeoA-rnswG8w" version="24.0.4" type="github">
  <diagram name="페이지-1" id="s7YHc9SL_1-A9U8I68s_">
    <mxGraphModel dx="1364" dy="317" grid="1" gridSize="10" guides="1" tooltips="1" connect="1" arrows="1" fold="1" page="1" pageScale="1" pageWidth="827" pageHeight="1169" math="0" shadow="0">
      <root>
        <mxCell id="0" />
        <mxCell id="1" parent="0" />
        <mxCell id="Zf9a9MGNrB4td9asI6uO-6" value="Command" style="swimlane;childLayout=stackLayout;resizeParent=1;resizeParentMax=0;horizontal=1;startSize=20;horizontalStack=0;html=1;" vertex="1" parent="1">
          <mxGeometry x="-280" y="50" width="640" height="480" as="geometry" />
        </mxCell>
        <mxCell id="Zf9a9MGNrB4td9asI6uO-7" value="System" style="swimlane;startSize=20;horizontal=0;html=1;" vertex="1" parent="Zf9a9MGNrB4td9asI6uO-6">
          <mxGeometry y="20" width="640" height="120" as="geometry" />
        </mxCell>
        <mxCell id="Zf9a9MGNrB4td9asI6uO-14" value="SystemManagerCommand" style="rounded=0;whiteSpace=wrap;html=1;" vertex="1" parent="Zf9a9MGNrB4td9asI6uO-7">
          <mxGeometry x="80" y="20" width="190" height="60" as="geometry" />
        </mxCell>
        <mxCell id="Zf9a9MGNrB4td9asI6uO-8" value="Window" style="swimlane;startSize=20;horizontal=0;html=1;" vertex="1" parent="Zf9a9MGNrB4td9asI6uO-6">
          <mxGeometry y="140" width="640" height="120" as="geometry" />
        </mxCell>
        <mxCell id="Zf9a9MGNrB4td9asI6uO-9" value="Module" style="swimlane;startSize=20;horizontal=0;html=1;" vertex="1" parent="Zf9a9MGNrB4td9asI6uO-6">
          <mxGeometry y="260" width="640" height="110" as="geometry" />
        </mxCell>
        <mxCell id="Zf9a9MGNrB4td9asI6uO-27" value="Component" style="swimlane;startSize=20;horizontal=0;html=1;" vertex="1" parent="Zf9a9MGNrB4td9asI6uO-6">
          <mxGeometry y="370" width="640" height="110" as="geometry" />
        </mxCell>
        <mxCell id="Zf9a9MGNrB4td9asI6uO-1" value="LoginManagerCommand" style="rounded=0;whiteSpace=wrap;html=1;" vertex="1" parent="Zf9a9MGNrB4td9asI6uO-27">
          <mxGeometry x="40" y="25" width="150" height="60" as="geometry" />
        </mxCell>
        <mxCell id="Zf9a9MGNrB4td9asI6uO-28" value="SetPasswordCommand" style="rounded=0;whiteSpace=wrap;html=1;" vertex="1" parent="Zf9a9MGNrB4td9asI6uO-27">
          <mxGeometry x="204" y="25" width="150" height="60" as="geometry" />
        </mxCell>
        <mxCell id="Zf9a9MGNrB4td9asI6uO-29" value="SigninCommand" style="rounded=0;whiteSpace=wrap;html=1;" vertex="1" parent="Zf9a9MGNrB4td9asI6uO-27">
          <mxGeometry x="370" y="25" width="150" height="60" as="geometry" />
        </mxCell>
      </root>
    </mxGraphModel>
  </diagram>
</mxfile>
